<svg xmlns="http://www.w3.org/2000/svg" viewBox="0 0 100 100" preserveAspectRatio="xMidYMid meet">
  <defs>
    <linearGradient id="logo-propfi-gradient" x1="0%" y1="0%" x2="100%" y2="100%">
      <stop offset="0%" style="stop-color:#1E3A8A;stop-opacity:1" />
      <stop offset="100%" style="stop-color:#3B82F6;stop-opacity:1" />
    </linearGradient>
  </defs>
  
  <!-- Background with rounded corners -->
  <rect x="2" y="2" width="96" height="96" rx="8" ry="8" fill="white" stroke="#1E3A8A" stroke-width="2" vector-effect="non-scaling-stroke"/>
  
  <!-- Sun with rays -->
  <g id="logo-propfi-sun">
    <circle cx="20" cy="20" r="8" fill="#1E3A8A"/>
    <g stroke="#1E3A8A" stroke-width="2" stroke-linecap="round" vector-effect="non-scaling-stroke">
      <line x1="20" y1="20" x2="20" y2="8"/>
      <line x1="20" y1="20" x2="28" y2="12"/>
      <line x1="20" y1="20" x2="28" y2="28"/>
      <line x1="20" y1="20" x2="20" y2="32"/>
      <line x1="20" y1="20" x2="12" y2="28"/>
      <line x1="20" y1="20" x2="12" y2="12"/>
      <line x1="20" y1="20" x2="8" y2="20"/>
      <line x1="20" y1="20" x2="32" y2="20"/>
    </g>
  </g>
  
  <!-- Growth chart with upward trend -->
  <g id="logo-propfi-chart" vector-effect="non-scaling-stroke">
    <!-- Chart line -->
    <path d="M 35 70 L 35 50 L 45 40 L 55 50 L 55 70" stroke="#1E3A8A" stroke-width="3" fill="none" stroke-linecap="round" stroke-linejoin="round"/>
    
    <!-- Arrowhead -->
    <path d="M 55 50 L 60 45 L 65 50 L 60 55 Z" fill="#1E3A8A"/>
    
    <!-- Bar chart -->
    <rect x="30" y="75" width="6" height="12" fill="#60A5FA"/>
    <rect x="40" y="70" width="6" height="17" fill="#60A5FA"/>
    <rect x="50" y="65" width="6" height="22" fill="#60A5FA"/>
  </g>
  
  <!-- Building -->
  <g id="logo-propfi-building" transform="translate(70, 55)">
    <!-- Main building structure -->
    <rect x="0" y="20" width="25" height="20" fill="#1E3A8A"/>
    <!-- Roof -->
    <path d="M-3 20 L12.5 8 L28 20 Z" fill="#1E3A8A"/>
    <!-- Windows -->
    <rect x="3" y="25" width="4" height="4" fill="white"/>
    <rect x="18" y="25" width="4" height="4" fill="white"/>
    <rect x="3" y="32" width="4" height="4" fill="white"/>
    <rect x="18" y="32" width="4" height="4" fill="white"/>
    <rect x="10.5" y="28.5" width="4" height="4" fill="white"/>
  </g>
  
  <!-- Base line -->
  <line x1="30" y1="80" x2="95" y2="80" stroke="#1E3A8A" stroke-width="3" vector-effect="non-scaling-stroke"/>
  
  <!-- PropFi text - proper letter shapes -->
  <g id="logo-propfi-text">
    <!-- P -->
    <path d="M 35 90 L 35 85 L 40 85 L 40 87.5 L 37 87.5 L 37 90 Z" fill="#1E3A8A"/>
    <path d="M 40 85 L 42 85 L 42 87.5 L 40 87.5 Z" fill="#1E3A8A"/>
    <!-- r -->
    <path d="M 44 90 L 44 85 L 47 85 L 47 87 L 45 87 L 45 90 Z" fill="#1E3A8A"/>
    <!-- o -->
    <path d="M 49 87.5 L 49 85 L 52 85 L 52 87.5 L 49 87.5 Z" fill="none" stroke="#1E3A8A" stroke-width="1"/>
    <!-- p -->
    <path d="M 54 90 L 54 85 L 59 85 L 59 87.5 L 56 87.5 L 56 90 Z" fill="#1E3A8A"/>
    <path d="M 59 85 L 61 85 L 61 87.5 L 59 87.5 Z" fill="#1E3A8A"/>
    <!-- F -->
    <path d="M 63 90 L 63 85 L 68 85 L 68 87 L 65 87 L 65 90 Z" fill="#1E3A8A"/>
    <path d="M 65 87 L 68 87 L 68 88.5 L 65 88.5 Z" fill="#1E3A8A"/>
    <!-- i -->
    <path d="M 70 90 L 70 85 L 72 85 L 72 90 Z" fill="#1E3A8A"/>
    <path d="M 70 84 L 70 83 L 72 83 L 72 84 Z" fill="#1E3A8A"/>
  </g>
</svg>
